<svg xmlns="http://www.w3.org/2000/svg" xmlns:xlink="http://www.w3.org/1999/xlink" version="1.1" x="0px" y="0px" viewBox="0 0 90 112.5" enable-background="new 0 0 90 90" xml:space="preserve"><path d="M75.8,13.7c-5-6.3-12.1-10.2-20-11.1C39.2,0.6,24.5,12.6,22.6,28.9c-0.9,7.9,1.3,15.8,6.3,22c1,1.3,2.1,2.5,3.3,3.5  L11.6,81.7c-1.2,1.6-0.9,3.9,0.7,5.1c0.7,0.5,1.4,0.7,2.2,0.7c1.1,0,2.2-0.5,2.9-1.5l20.8-27.5c3.3,1.8,6.9,2.9,10.7,3.3  c1.1,0.1,2.3,0.2,3.4,0.2c15.2,0,28-11.4,29.7-26.5C83,27.7,80.8,19.9,75.8,13.7z M74.8,34.9c-1.4,12.3-12.4,21.4-25,19.9  c-6-0.7-11.4-3.7-15.1-8.4c-3.8-4.7-5.4-10.6-4.8-16.6c1.3-11.4,10.9-20,22.4-20c0.9,0,1.7,0.1,2.6,0.1c6,0.7,11.4,3.7,15.1,8.4  C73.8,23,75.5,28.9,74.8,34.9z"/><text x="0" y="105" fill="#000000" font-size="5px" font-weight="bold" font-family="'Helvetica Neue', Helvetica, Arial-Unicode, Arial, Sans-serif">Created by Sergey Novosyolov</text><text x="0" y="110" fill="#000000" font-size="5px" font-weight="bold" font-family="'Helvetica Neue', Helvetica, Arial-Unicode, Arial, Sans-serif">from the Noun Project</text></svg>