<svg xmlns="http://www.w3.org/2000/svg" xmlns:xlink="http://www.w3.org/1999/xlink" version="1.1" x="0px" y="0px" viewBox="0 0 32 40" enable-background="new 0 0 32 32" xml:space="preserve"><g><path d="M30.91,10.59C30.75,10.23,30.39,10,30,10h-9.04L16.9,1.57C16.73,1.22,16.38,1,16,1s-0.73,0.22-0.9,0.57L11.04,10H2   c-0.39,0-0.75,0.23-0.91,0.59c-0.16,0.35-0.1,0.77,0.16,1.07l6.64,7.59L5.04,29.74c-0.11,0.37,0.02,0.78,0.32,1.03   s0.72,0.3,1.07,0.13L16,26.33l9.57,4.57C25.71,30.97,25.85,31,26,31h0.01c0.55-0.03,1.01-0.44,1.01-1c0-0.16-0.04-0.31-0.11-0.45   l-2.8-10.3l6.64-7.59C31.01,11.36,31.07,10.94,30.91,10.59z"/></g><text x="0" y="47" fill="#000000" font-size="5px" font-weight="bold" font-family="'Helvetica Neue', Helvetica, Arial-Unicode, Arial, Sans-serif">Created by Icon Lauk</text><text x="0" y="52" fill="#000000" font-size="5px" font-weight="bold" font-family="'Helvetica Neue', Helvetica, Arial-Unicode, Arial, Sans-serif">from the Noun Project</text></svg>